<svg width="52" height="56" viewBox="0 0 52 56" fill="none" xmlns="http://www.w3.org/2000/svg">
<g filter="url(#filter0_dd_2265_7290)">
<path fill-rule="evenodd" clip-rule="evenodd" d="M11.8571 4C9.7269 4 8 5.7269 8 7.85714V36.1429C8 38.2731 9.7269 40 11.8571 40H22.5362L24.3302 43.1073C25.0725 44.393 26.9283 44.393 27.6706 43.1073L29.4645 40H40.1429C42.2731 40 44 38.2731 44 36.1429V7.85714C44 5.7269 42.2731 4 40.1429 4H11.8571Z" fill="#FF42A1"/>
<path d="M23.8332 26V20H20.8332V18H28.8332V20H25.8332V26H23.8332ZM12.6665 26V19.3333C12.6665 18.9556 12.7943 18.6389 13.0498 18.3833C13.3054 18.1278 13.6221 18 13.9998 18H17.9998C18.3776 18 18.6943 18.1278 18.9498 18.3833C19.2054 18.6389 19.3332 18.9556 19.3332 19.3333V26H17.3332V24H14.6665V26H12.6665ZM14.6665 22H17.3332V20H14.6665V22ZM30.6665 26V19.3333C30.6665 18.9556 30.7943 18.6389 31.0498 18.3833C31.3054 18.1278 31.6221 18 31.9998 18H37.9998C38.3776 18 38.6943 18.1278 38.9498 18.3833C39.2054 18.6389 39.3332 18.9556 39.3332 19.3333V26H37.3332V20H35.9998V24.6667H33.9998V20H32.6665V26H30.6665Z" fill="white"/>
</g>
<defs>
<filter id="filter0_dd_2265_7290" x="0.285714" y="0.142857" width="51.4286" height="57.4286" filterUnits="userSpaceOnUse" color-interpolation-filters="sRGB">
<feFlood flood-opacity="0" result="BackgroundImageFix"/>
<feColorMatrix in="SourceAlpha" type="matrix" values="0 0 0 0 0 0 0 0 0 0 0 0 0 0 0 0 0 0 127 0" result="hardAlpha"/>
<feOffset dy="3.85714"/>
<feGaussianBlur stdDeviation="3.85714"/>
<feColorMatrix type="matrix" values="0 0 0 0 0 0 0 0 0 0 0 0 0 0 0 0 0 0 0.24 0"/>
<feBlend mode="normal" in2="BackgroundImageFix" result="effect1_dropShadow_2265_7290"/>
<feColorMatrix in="SourceAlpha" type="matrix" values="0 0 0 0 0 0 0 0 0 0 0 0 0 0 0 0 0 0 127 0" result="hardAlpha"/>
<feOffset dy="3.85714"/>
<feGaussianBlur stdDeviation="3.85714"/>
<feColorMatrix type="matrix" values="0 0 0 0 0 0 0 0 0 0 0 0 0 0 0 0 0 0 0.04 0"/>
<feBlend mode="normal" in2="effect1_dropShadow_2265_7290" result="effect2_dropShadow_2265_7290"/>
<feBlend mode="normal" in="SourceGraphic" in2="effect2_dropShadow_2265_7290" result="shape"/>
</filter>
</defs>
</svg>
